0
SECTION
2
ENTITIES
0
LINE
8
OUTLINE
10
-52.0
20
-40.0
30
0.0
11
52.0
21
-40.0
31
0.0
0
LINE
8
OUTLINE
10
60.0
20
-32.0
30
0.0
11
60.0
21
32.0
31
0.0
0
LINE
8
OUTLINE
10
52.0
20
40.0
30
0.0
11
-52.0
21
40.0
31
0.0
0
LINE
8
OUTLINE
10
-60.0
20
32.0
30
0.0
11
-60.0
21
-32.0
31
0.0
0
ARC
8
OUTLINE
10
52.0
20
-32.0
30
0.0
40
8.0
50
270
51
360
0
ARC
8
OUTLINE
10
52.0
20
32.0
30
0.0
40
8.0
50
0
51
90
0
ARC
8
OUTLINE
10
-52.0
20
32.0
30
0.0
40
8.0
50
90
51
180
0
ARC
8
OUTLINE
10
-52.0
20
-32.0
30
0.0
40
8.0
50
180
51
270
0
CIRCLE
8
HOLES
10
-43.0
20
-23.0
30
0.0
40
4.25
0
CIRCLE
8
HOLES
10
43.0
20
-23.0
30
0.0
40
4.25
0
CIRCLE
8
HOLES
10
43.0
20
23.0
30
0.0
40
4.25
0
CIRCLE
8
HOLES
10
-43.0
20
23.0
30
0.0
40
4.25
0
CIRCLE
8
HOLES
10
0.0
20
0.0
30
0.0
40
10.0
0
ENDSEC
0
EOF
